HIERARCHY
ROOT hip
{
  OFFSET 0 0 0
  CHANNELS 6 Xposition Yposition Zposition Zrotation Yrotation Xrotation
  JOINT abdomen
  {
    OFFSET 0 20.6881 -0.73152
    CHANNELS 3 Zrotation Xrotation Yrotation
    JOINT chest
    {
      OFFSET 0 11.7043 -0.48768
      CHANNELS 3 Zrotation Xrotation Yrotation
      JOINT neck
      {
        OFFSET 0 22.1894 -2.19456
        CHANNELS 3 Zrotation Xrotation Yrotation
        JOINT head
        {
          OFFSET -0.24384 7.07133 1.2192
          CHANNELS 3 Zrotation Xrotation Yrotation
          JOINT leftEye
          {
            OFFSET 4.14528 8.04674 8.04672
            CHANNELS 3 Zrotation Xrotation Yrotation
            End Site
            {
              OFFSET 1 0 0
            }
          }
          JOINT rightEye
          {
            OFFSET -3.6576 8.04674 8.04672
            CHANNELS 3 Zrotation Xrotation Yrotation
            End Site
            {
              OFFSET 1 0 0
            }
          }
        }
      }
      JOINT rCollar
      {
        OFFSET -2.68224 19.2634 -4.8768
        CHANNELS 3 Zrotation Xrotation Yrotation
        JOINT rShldr
        {
          OFFSET -8.77824 -1.95073 1.46304
          CHANNELS 3 Zrotation Xrotation Yrotation
          JOINT rForeArm
          {
            OFFSET -28.1742 -1.7115 0.48768
            CHANNELS 3 Zrotation Xrotation Yrotation
            JOINT rHand
            {
              OFFSET -22.5879 0.773209 7.07136
              CHANNELS 3 Zrotation Xrotation Yrotation
              JOINT rThumb1
              {
                OFFSET -1.2192 -0.487915 3.41376
                CHANNELS 3 Zrotation Xrotation Yrotation
                JOINT rThumb2
                {
                  OFFSET -3.37035 -0.52449 3.41376
                  CHANNELS 3 Zrotation Xrotation Yrotation
                  End Site
                  {
                    OFFSET -1.78271 -1.18214 1.43049
                  }
                }
              }
              JOINT rIndex1
              {
                OFFSET -7.75947 0.938293 5.60832
                CHANNELS 3 Zrotation Xrotation Yrotation
                JOINT rIndex2
                {
                  OFFSET -2.54057 -0.884171 1.56538
                  CHANNELS 3 Zrotation Xrotation Yrotation
                  End Site
                  {
                    OFFSET -1.62519 -0.234802 1.16502
                  }
                }
              }
              JOINT rMid1
              {
                OFFSET -8.24714 1.18213 3.41376
                CHANNELS 3 Zrotation Xrotation Yrotation
                JOINT rMid2
                {
                  OFFSET -3.10165 -0.590103 1.0647
                  CHANNELS 3 Zrotation Xrotation Yrotation
                  End Site
                  {
                    OFFSET -2.48547 -0.328903 0.83742
                  }
                }
              }
              JOINT rRing1
              {
                OFFSET -8.82822 0.546677 1.51678
                CHANNELS 3 Zrotation Xrotation Yrotation
                JOINT rRing2
                {
                  OFFSET -2.60934 -0.819778 -0.0198488
                  CHANNELS 3 Zrotation Xrotation Yrotation
                  End Site
                  {
                    OFFSET -2.33842 -0.294052 0.168128
                  }
                }
              }
              JOINT rPinky1
              {
                OFFSET -8.27202 -0.0477905 -0.4584
                CHANNELS 3 Zrotation Xrotation Yrotation
                JOINT rPinky2
                {
                  OFFSET -1.82734 -0.647385 -0.700984
                  CHANNELS 3 Zrotation Xrotation Yrotation
                  End Site
                  {
                    OFFSET -1.69225 -0.51767 -0.607171
                  }
                }
              }
            }
          }
        }
      }
      JOINT lCollar
      {
        OFFSET 2.68224 19.2634 -4.8768
        CHANNELS 3 Zrotation Xrotation Yrotation
        JOINT lShldr
        {
          OFFSET 8.77824 -1.95073 1.46304
          CHANNELS 3 Zrotation Xrotation Yrotation
          JOINT lForeArm
          {
            OFFSET 28.1742 -1.7115 0.48768
            CHANNELS 3 Zrotation Xrotation Yrotation
            JOINT lHand
            {
              OFFSET 22.5879 0.773209 7.07136
              CHANNELS 3 Zrotation Xrotation Yrotation
              JOINT lThumb1
              {
                OFFSET 1.2192 -0.487915 3.41376
                CHANNELS 3 Zrotation Xrotation Yrotation
                JOINT lThumb2
                {
                  OFFSET 3.37035 -0.52449 3.41376
                  CHANNELS 3 Zrotation Xrotation Yrotation
                  End Site
                  {
                    OFFSET 1.78271 -1.18214 1.43049
                  }
                }
              }
              JOINT lIndex1
              {
                OFFSET 7.75947 0.938293 5.60832
                CHANNELS 3 Zrotation Xrotation Yrotation
                JOINT lIndex2
                {
                  OFFSET 2.54057 -0.884171 1.56538
                  CHANNELS 3 Zrotation Xrotation Yrotation
                  End Site
                  {
                    OFFSET 1.62519 -0.234802 1.16502
                  }
                }
              }
              JOINT lMid1
              {
                OFFSET 8.24714 1.18213 3.41376
                CHANNELS 3 Zrotation Xrotation Yrotation
                JOINT lMid2
                {
                  OFFSET 3.10165 -0.590103 1.0647
                  CHANNELS 3 Zrotation Xrotation Yrotation
                  End Site
                  {
                    OFFSET 2.48547 -0.328903 0.83742
                  }
                }
              }
              JOINT lRing1
              {
                OFFSET 8.82822 0.546677 1.51678
                CHANNELS 3 Zrotation Xrotation Yrotation
                JOINT lRing2
                {
                  OFFSET 2.60934 -0.819778 -0.0198488
                  CHANNELS 3 Zrotation Xrotation Yrotation
                  End Site
                  {
                    OFFSET 2.33842 -0.294052 0.168128
                  }
                }
              }
              JOINT lPinky1
              {
                OFFSET 8.27202 -0.0477905 -0.4584
                CHANNELS 3 Zrotation Xrotation Yrotation
                JOINT lPinky2
                {
                  OFFSET 1.82734 -0.647385 -0.700984
                  CHANNELS 3 Zrotation Xrotation Yrotation
                  End Site
                  {
                    OFFSET 1.69225 -0.51767 -0.607171
                  }
                }
              }
            }
          }
        }
      }
    }
  }
  JOINT rButtock
  {
    OFFSET -8.77824 4.35084 1.2192
    CHANNELS 3 Zrotation Xrotation Yrotation
    JOINT rThigh
    {
      OFFSET 0 -1.70687 -2.19456
      CHANNELS 3 Zrotation Xrotation Yrotation
      JOINT rShin
      {
        OFFSET 0 -36.8199 0.73152
        CHANNELS 3 Zrotation Xrotation Yrotation
        JOINT rFoot
        {
          OFFSET 0.73152 -45.1104 -5.12064
          CHANNELS 3 Zrotation Xrotation Yrotation
          End Site
          {
            OFFSET -1.1221 -3.69964 12.103
          }
        }
      }
    }
  }
  JOINT lButtock
  {
    OFFSET 8.77824 4.35084 1.2192
    CHANNELS 3 Zrotation Xrotation Yrotation
    JOINT lThigh
    {
      OFFSET 0 -1.70687 -2.19456
      CHANNELS 3 Zrotation Xrotation Yrotation
      JOINT lShin
      {
        OFFSET 0 -36.8199 0.73152
        CHANNELS 3 Zrotation Xrotation Yrotation
        JOINT lFoot
        {
          OFFSET -0.73152 -45.1104 -5.12064
          CHANNELS 3 Zrotation Xrotation Yrotation
          End Site
          {
            OFFSET 1.1221 -3.69964 12.103
          }
        }
      }
    }
  }
}
MOTION
Frames:	7
Frame Time:	0.00833333
-10.4573 83.9933 5.25391 0.0 0.0 0.0 -1.70622 -0.00254498 -0.0464502 -0.470562 0.00242736 -0.0814849 -1.04387e-16 0.0 -3.97569e-16 -5.90142e-16 3.18055e-15 -1.46759e-15 -0.0 0.0 0.0 -0.0 0.0 0.0 -1.83282e-18 -8.8133e-17 -9.93923e-17 2.23245e-18 -1.78906e-15 -4.17448e-15 -5.72997e-14 -4.83047e-14 -1.01778e-13 -5.48099e-13 -3.50929e-13 -1.02414e-12 -1.3163e-12 -8.66492e-13 -2.43312e-12 -2.28761e-12 -1.49486e-12 -4.18959e-12 -1.31357e-12 -8.67099e-13 -2.4363e-12 7.73091 5.47488 0.417314 -1.31735e-12 -8.67099e-13 -2.42358e-12 2.90554 0.965183 0.102902 -1.31674e-12 -8.66502e-13 -2.42279e-12 10.2786 0.731801 0.0259123 -1.32331e-12 -8.63918e-13 -2.40768e-12 2.22167 -0.733487 -0.20892 1.83282e-18 -8.85213e-17 -2.98177e-16 -5.17044e-15 -1.69588e-15 -6.16232e-15 -4.00054e-14 -8.15017e-14 -9.85972e-14 -5.71233e-13 -3.12067e-13 -1.00187e-12 -1.32553e-12 -8.565e-13 -2.41722e-12 -2.27489e-12 -1.47896e-12 -4.17448e-12 -1.33146e-12 -8.56762e-13 -2.40132e-12 -7.73091 5.47488 -0.417314 -1.32376e-12 -8.56861e-13 -2.41722e-12 -2.90554 0.965183 -0.102902 -1.32531e-12 -8.56464e-13 -2.41881e-12 -10.2786 0.731801 -0.0259123 -1.31993e-12 -8.55569e-13 -2.43949e-12 -2.22167 -0.733487 0.20892 -2.03217e-16 0.0 -3.88251e-19 -0.810616 -1.92439 -0.00361298 -0.0090153 -2.07859 -0.0743116 -0.483854 3.99775 0.136136 2.03217e-16 0.0 3.88251e-19 -1.7865 -6.85421 0.170481 -0.00323801 6.85138 -0.086385 0.513052 -0.00231236 -0.0581952
-10.5176 82.5464 4.00302 0.3981 -1.0023 4.2904 -2.00636 -0.46069 -0.259511 0.449001 -0.347953 -0.149879 -2.99132 -1.69296 -0.922904 2.53082 1.38983 -0.780103 -0.0 0.0 0.0 -0.0 0.0 0.0 -5.02067e-15 2.48692e-14 -1.36649e-14 21.8171 2.29459 -0.153204 -4.27624 -1.95424 6.66678 0.0555361 5.23148 0.724211 6.15547e-11 -1.30134e-10 -4.72821e-11 1.05071e-10 -2.24173e-10 -8.26026e-11 6.15589e-11 -1.30134e-10 -4.72891e-11 7.73091 5.47488 0.417314 6.15546e-11 -1.30136e-10 -4.72762e-11 2.90554 0.965183 0.102902 6.15569e-11 -1.30135e-10 -4.72735e-11 10.2786 0.731801 0.0259123 6.15497e-11 -1.30134e-10 -4.72601e-11 2.22167 -0.733487 -0.20892 -5.07342e-15 2.4869e-14 -1.38738e-14 -22.932 1.80337 -0.156165 3.56845 -1.51046 -5.68822 -0.0123672 2.46744 -0.345615 1.11153e-10 1.83742e-10 8.92351e-12 1.92355e-10 3.17567e-10 1.40172e-11 1.11148e-10 1.83744e-10 8.93617e-12 -7.73091 5.47488 -0.417314 1.11155e-10 1.83743e-10 8.92091e-12 -2.90554 0.965183 -0.102902 1.11153e-10 1.83744e-10 8.92165e-12 -10.2786 0.731801 -0.0259123 1.11157e-10 1.83744e-10 8.90489e-12 -2.22167 -0.733487 0.20892 -2.03217e-16 0.0 -3.88251e-19 -1.65097 -5.46678 1.14289 0.0190574 7.00486 0.096087 -0.705115 -1.96414 -1.71069 2.03217e-16 0.0 3.88251e-19 -1.38182 -8.60079 -0.09921 -0.0182923 13.089 -0.196931 0.887573 -3.99525 3.1178
-10.517 82.5451 4.00082 0.3996 -0.9963 4.2983 -2.33003 -0.946765 -0.485364 1.4204 -0.717658 -0.222351 -6.2139 -3.4823 -1.90163 5.24838 2.85981 -1.60673 -0.0 0.0 0.0 -0.0 0.0 0.0 -1.04439e-14 4.93217e-14 -2.85629e-14 44.8943 4.72083 -0.315616 -8.30599 -3.93192 13.7393 -0.0318902 10.7599 1.51026 1.24293e-10 -2.79683e-10 -8.12043e-11 2.12289e-10 -4.82055e-10 -1.42131e-10 1.24299e-10 -2.79683e-10 -8.12155e-11 7.73091 5.47488 0.417314 1.24294e-10 -2.79686e-10 -8.12023e-11 2.90554 0.965183 0.102902 1.24298e-10 -2.79686e-10 -8.11976e-11 10.2786 0.731801 0.0259123 1.2429e-10 -2.79686e-10 -8.11858e-11 2.22167 -0.733487 -0.20892 -1.05597e-14 4.93216e-14 -2.87803e-14 -47.1644 3.71013 -0.321477 7.01668 -3.05774 -11.7144 0.0070331 5.07172 -0.712577 2.40057e-10 3.80242e-10 -1.00327e-12 4.15222e-10 6.57058e-10 -4.73536e-12 2.40053e-10 3.80245e-10 -9.93921e-13 -7.73091 5.47488 -0.417314 2.4006e-10 3.80244e-10 -1.00863e-12 -2.90554 0.965183 -0.102902 2.40056e-10 3.80245e-10 -1.00534e-12 -10.2786 0.731801 -0.0259123 2.4006e-10 3.80245e-10 -1.01797e-12 -2.22167 -0.733487 0.20892 -2.03217e-16 0.0 -3.88251e-19 -2.38538 -9.2068 2.37471 -0.0119416 16.6067 0.286645 -1.35973 -8.25022 -3.69809 2.03217e-16 0.0 3.88251e-19 -0.974486 -10.4466 -0.388783 -0.00634641 19.681 -0.322744 1.76849 -8.17363 6.52875
-10.517 82.5453 4.00395 0.4005 -0.9949 4.2849 -2.61687 -1.3769 -0.685804 2.28562 -1.04871 -0.286708 -9.13807 -5.07361 -2.7784 7.70621 4.1664 -2.34582 -0.0 0.0 0.0 -0.0 0.0 0.0 -1.50583e-14 7.4784e-14 -4.07959e-14 65.4884 6.88358 -0.462578 -11.4898 -5.54588 20.0867 -0.243093 15.6842 2.2473 1.87297e-10 -3.88668e-10 -1.3698e-10 3.19789e-10 -6.69528e-10 -2.39429e-10 1.87304e-10 -3.88668e-10 -1.36995e-10 7.73091 5.47488 0.417314 1.87298e-10 -3.88673e-10 -1.36981e-10 2.90554 0.965183 0.102902 1.87304e-10 -3.88673e-10 -1.36975e-10 10.2786 0.731801 0.0259123 1.87296e-10 -3.88674e-10 -1.36965e-10 2.22167 -0.733487 -0.20892 -1.52239e-14 7.47841e-14 -4.1025e-14 -68.7663 5.40996 -0.470357 9.81822 -4.35305 -17.1096 0.0528356 7.40124 -1.04459 3.36109e-10 5.5294e-10 3.1605e-11 5.81614e-10 9.55659e-10 5.04007e-11 3.36106e-10 5.52944e-10 3.16111e-11 -7.73091 5.47488 -0.417314 3.36112e-10 5.52943e-10 3.15972e-11 -2.90554 0.965183 -0.102902 3.36108e-10 5.52944e-10 3.16026e-11 -10.2786 0.731801 -0.0259123 3.36112e-10 5.52943e-10 3.15936e-11 -2.22167 -0.733487 0.20892 -2.03217e-16 0.0 -3.88251e-19 -2.89742 -12.5321 3.50387 -0.0992928 25.171 0.480238 -2.32404 -13.8277 -5.56235 2.03217e-16 0.0 3.88251e-19 -0.622848 -12.0932 -0.64717 0.0316252 25.5638 -0.447739 2.98222 -11.8337 9.65412
-10.5296 82.5459 4.01042 0.351 -1.0182 4.2586 -2.80435 -1.66725 -0.822546 2.88713 -1.28312 -0.330742 -11.2 -6.17485 -3.391 9.43402 5.06747 -2.86082 -0.0 0.0 0.0 -0.0 0.0 0.0 -1.7651e-14 1.02771e-13 -4.63665e-14 79.8489 8.38781 -0.568104 -13.4927 -6.55232 24.5389 -0.469807 19.108 2.79076 2.50965e-10 -3.96243e-10 -2.4739e-10 4.2799e-10 -6.80976e-10 -4.31148e-10 2.50973e-10 -3.96243e-10 -2.47406e-10 7.73091 5.47488 0.417314 2.50967e-10 -3.96248e-10 -2.47393e-10 2.90554 0.965183 0.102902 2.50974e-10 -3.96249e-10 -2.47386e-10 10.2786 0.731801 0.0259123 2.50965e-10 -3.96251e-10 -2.47377e-10 2.22167 -0.733487 -0.20892 -1.78332e-14 1.02771e-13 -4.6615e-14 -83.813 6.5926 -0.576385 11.6238 -5.18832 -20.8841 0.101401 9.04485 -1.28194 3.50032e-10 6.66132e-10 1.70551e-10 6.06816e-10 1.15203e-09 2.90258e-10 3.5003e-10 6.66137e-10 1.70554e-10 -7.73091 5.47488 -0.417314 3.50036e-10 6.66136e-10 1.70541e-10 -2.90554 0.965183 -0.102902 3.50031e-10 6.66137e-10 1.70548e-10 -10.2786 0.731801 -0.0259123 3.50035e-10 6.66136e-10 1.70541e-10 -2.22167 -0.733487 0.20892 -2.03217e-16 0.0 -3.88251e-19 -3.16316 -14.8385 4.31512 -0.200626 31.1425 0.638115 -3.22555 -17.6942 -6.94883 2.03217e-16 0.0 3.88251e-19 -0.37418 -13.2425 -0.820658 0.075858 29.6739 -0.545293 4.07163 -14.3391 11.8899
-10.5458 82.5461 4.01564 0.2728 -1.0015 4.2343 -2.84092 -1.75896 -0.867268 3.11781 -1.38493 -0.345508 -12.0034 -6.5912 -3.62857 10.1062 5.4012 -3.06107 -0.0 0.0 0.0 -0.0 0.0 0.0 -1.56719e-14 1.40982e-13 -4.12727e-14 85.4725 8.9634 -0.616751 -14.2314 -6.9157 26.2898 -0.576937 20.4375 3.01054 3.12233e-10 -2.17272e-10 -4.85818e-10 5.30781e-10 -3.68341e-10 -8.44053e-10 3.12241e-10 -2.1727e-10 -4.85831e-10 7.73091 5.47488 0.417314 3.12234e-10 -2.17276e-10 -4.8582e-10 2.90554 0.965183 0.102902 3.12243e-10 -2.17276e-10 -4.85814e-10 10.2786 0.731801 0.0259123 3.12233e-10 -2.17279e-10 -4.85806e-10 2.22167 -0.733487 -0.20892 -1.58171e-14 1.40984e-13 -4.15619e-14 -89.6903 7.05257 -0.621115 12.2979 -5.49651 -22.3632 0.125505 9.73976 -1.38319 1.95319e-10 6.66253e-10 5.06679e-10 3.41953e-10 1.15407e-09 8.72756e-10 1.95317e-10 6.66258e-10 5.06679e-10 -7.73091 5.47488 -0.417314 1.95322e-10 6.66256e-10 5.06668e-10 -2.90554 0.965183 -0.102902 1.95318e-10 6.66257e-10 5.06674e-10 -10.2786 0.731801 -0.0259123 1.95322e-10 6.66257e-10 5.06669e-10 -2.22167 -0.733487 0.20892 -2.03217e-16 0.0 -3.88251e-19 -3.21874 -15.7268 4.64241 -0.251093 33.4806 0.707173 -3.63966 -19.2158 -7.52802 2.03217e-16 0.0 3.88251e-19 -0.245387 -13.6973 -0.869419 0.0980062 31.3072 -0.58701 4.55081 -15.3327 12.7556
-10.5499 82.546 4.01722 0.249 -0.9829 4.2235 -2.76942 -1.70895 -0.846362 3.08391 -1.39191 -0.3394 -11.8958 -6.51944 -3.59636 10.0161 5.33035 -3.03536 -0.0 0.0 0.0 -0.0 0.0 0.0 -1.051e-14 1.86179e-13 -2.8625e-14 84.8524 8.87604 -0.624029 -14.1521 -6.87903 26.0993 -0.56352 20.2732 2.98318 3.71945e-10 9.28248e-11 -8.13233e-10 6.30011e-10 1.72083e-10 -1.41071e-09 3.71952e-10 9.28277e-11 -8.13242e-10 7.73091 5.47488 0.417314 3.71946e-10 9.28229e-11 -8.13233e-10 2.90554 0.965183 0.102902 3.71955e-10 9.28225e-11 -8.13228e-10 10.2786 0.731801 0.0259123 3.71944e-10 9.28193e-11 -8.13221e-10 2.22167 -0.733487 -0.20892 -1.05805e-14 1.86181e-13 -2.89698e-14 -89.0203 6.9963 -0.621695 12.2224 -5.46176 -22.1957 0.125126 9.75672 -1.38555 -7.72946e-11 5.87025e-10 9.8135e-10 -1.25701e-10 1.01972e-09 1.696e-09 -7.72963e-11 5.87029e-10 9.81347e-10 -7.73091 5.47488 -0.417314 -7.72912e-11 5.87028e-10 9.8134e-10 -2.90554 0.965183 -0.102902 -7.72942e-11 5.87028e-10 9.81343e-10 -10.2786 0.731801 -0.0259123 -7.72904e-11 5.87029e-10 9.81338e-10 -2.22167 -0.733487 0.20892 -2.03217e-16 0.0 -3.88251e-19 -3.15897 -15.606 4.61199 -0.245105 33.2239 0.699385 -3.60463 -19.0771 -7.48583 2.03217e-16 0.0 3.88251e-19 -0.19902 -13.656 -0.828219 0.0960385 31.1713 -0.583439 4.49041 -15.2759 12.6074
